<mxfile host="app.diagrams.net" modified="2022-06-14T15:59:41.663Z" agent="5.0 (Windows NT 10.0; Win64; x64) AppleWebKit/537.36 (KHTML, like Gecko) Chrome/102.0.0.0 Safari/537.36" etag="X0SU22I6dz2KlwbU6qmM" version="20.0.1" type="gitlab">
  <diagram id="vkXFi3f1hxdLXTruqAG6" name="Page-1">
    <mxGraphModel dx="687" dy="355" grid="1" gridSize="10" guides="1" tooltips="1" connect="1" arrows="1" fold="1" page="1" pageScale="1" pageWidth="1654" pageHeight="2336" math="0" shadow="0">
      <root>
        <mxCell id="0" />
        <mxCell id="1" parent="0" />
        <mxCell id="c5b_wE1GWY0pzXmXuTih-1" value="&lt;div&gt;Name : Create next week Fixed Order.&lt;/div&gt;&lt;div&gt;• Description: Creating new fixed orders for the same day next week and closing the orders for the current day.&lt;/div&gt;&lt;div&gt;• Actors: storage worker – the storage worker has the responsibility at the end of the day to close today fixed orders and create next week same day fixed order using the system, in the end of each working day.&amp;nbsp;&lt;/div&gt;&lt;div&gt;• Pre-condition – none.&lt;/div&gt;&lt;div&gt;• Post-condition – order forms have been created for next week same day, and inventory amounts updated according to today orders.&lt;/div&gt;&lt;div&gt;• Main success scenario:&lt;/div&gt;&lt;div&gt;1. Storage worker launches the system.&lt;/div&gt;&lt;div&gt;2. In the menu, at the end of the day, he chooses the option of &quot;Create next week fixed orders&quot;.&lt;/div&gt;&lt;div&gt;3. The system closes today fixed orders and updates the inventory amounts accordingly.&lt;/div&gt;&lt;div&gt;4. the system will create new fixed orders for the next week at the same day.&lt;/div&gt;&lt;div&gt;&lt;span style=&quot;background-color: initial;&quot;&gt;• Alternatives/Extensions: Failure message.&lt;/span&gt;&lt;br&gt;&lt;/div&gt;" style="text;html=1;strokeColor=none;fillColor=none;align=left;verticalAlign=middle;whiteSpace=wrap;rounded=0;fontSize=13;" parent="1" vertex="1">
          <mxGeometry x="170" y="250" width="1212" height="220" as="geometry" />
        </mxCell>
        <mxCell id="c5b_wE1GWY0pzXmXuTih-2" value="&lt;u&gt;&lt;b&gt;Sequence diagram for main actor:&lt;/b&gt;&lt;/u&gt;" style="text;html=1;align=center;verticalAlign=middle;resizable=0;points=[];autosize=1;strokeColor=none;fillColor=none;fontSize=12;" parent="1" vertex="1">
          <mxGeometry x="750" y="40" width="210" height="20" as="geometry" />
        </mxCell>
        <mxCell id="c5b_wE1GWY0pzXmXuTih-3" value="" style="shape=umlLifeline;participant=umlActor;perimeter=lifelinePerimeter;whiteSpace=wrap;html=1;container=1;collapsible=0;recursiveResize=0;verticalAlign=top;spacingTop=36;outlineConnect=0;fontSize=12;" parent="1" vertex="1">
          <mxGeometry x="760" y="70" width="20" height="190" as="geometry" />
        </mxCell>
        <mxCell id="c5b_wE1GWY0pzXmXuTih-4" value="" style="html=1;points=[];perimeter=orthogonalPerimeter;fontSize=12;" parent="c5b_wE1GWY0pzXmXuTih-3" vertex="1">
          <mxGeometry x="5" y="50" width="10" height="130" as="geometry" />
        </mxCell>
        <mxCell id="c5b_wE1GWY0pzXmXuTih-5" value="System" style="shape=umlLifeline;perimeter=lifelinePerimeter;whiteSpace=wrap;html=1;container=1;collapsible=0;recursiveResize=0;outlineConnect=0;fontSize=12;" parent="1" vertex="1">
          <mxGeometry x="970" y="70" width="70" height="190" as="geometry" />
        </mxCell>
        <mxCell id="c5b_wE1GWY0pzXmXuTih-6" value="" style="html=1;points=[];perimeter=orthogonalPerimeter;fontSize=12;" parent="c5b_wE1GWY0pzXmXuTih-5" vertex="1">
          <mxGeometry x="30" y="50" width="10" height="130" as="geometry" />
        </mxCell>
        <mxCell id="wzHFxjmNumhrLHCxEb03-1" value="alt" style="shape=umlFrame;whiteSpace=wrap;html=1;width=40;height=20;" parent="c5b_wE1GWY0pzXmXuTih-5" vertex="1">
          <mxGeometry x="-330" y="70" width="390" height="100" as="geometry" />
        </mxCell>
        <mxCell id="wzHFxjmNumhrLHCxEb03-3" value="" style="endArrow=none;dashed=1;html=1;rounded=0;exitX=0.006;exitY=0.605;exitDx=0;exitDy=0;exitPerimeter=0;" parent="c5b_wE1GWY0pzXmXuTih-5" source="wzHFxjmNumhrLHCxEb03-1" edge="1">
          <mxGeometry width="50" height="50" relative="1" as="geometry">
            <mxPoint x="-100" y="300" as="sourcePoint" />
            <mxPoint x="60" y="130" as="targetPoint" />
          </mxGeometry>
        </mxCell>
        <mxCell id="wzHFxjmNumhrLHCxEb03-4" value="&lt;span style=&quot;font-size: 10px;&quot;&gt;Failure Message&lt;/span&gt;" style="html=1;verticalAlign=bottom;endArrow=open;dashed=1;endSize=8;rounded=0;fontSize=12;entryX=1.093;entryY=0.407;entryDx=0;entryDy=0;entryPerimeter=0;" parent="c5b_wE1GWY0pzXmXuTih-5" edge="1">
          <mxGeometry relative="1" as="geometry">
            <mxPoint x="30" y="159.99999999999997" as="sourcePoint" />
            <mxPoint x="-194.0699999999997" y="159.99999999999997" as="targetPoint" />
          </mxGeometry>
        </mxCell>
        <mxCell id="c5b_wE1GWY0pzXmXuTih-7" value="&lt;font style=&quot;font-size: 10px;&quot;&gt;CreateNextWeekFixedOrders()&lt;/font&gt;" style="html=1;verticalAlign=bottom;endArrow=block;rounded=0;fontSize=12;exitX=0.992;exitY=0.086;exitDx=0;exitDy=0;exitPerimeter=0;entryX=-0.008;entryY=0.083;entryDx=0;entryDy=0;entryPerimeter=0;" parent="1" source="c5b_wE1GWY0pzXmXuTih-4" target="c5b_wE1GWY0pzXmXuTih-6" edge="1">
          <mxGeometry width="80" relative="1" as="geometry">
            <mxPoint x="960" y="150" as="sourcePoint" />
            <mxPoint x="1000" y="133" as="targetPoint" />
          </mxGeometry>
        </mxCell>
        <mxCell id="c5b_wE1GWY0pzXmXuTih-8" value="&lt;span style=&quot;font-size: 10px;&quot;&gt;Next week orders&lt;/span&gt;" style="html=1;verticalAlign=bottom;endArrow=open;dashed=1;endSize=8;rounded=0;fontSize=12;entryX=1.093;entryY=0.407;entryDx=0;entryDy=0;entryPerimeter=0;" parent="1" source="c5b_wE1GWY0pzXmXuTih-6" target="c5b_wE1GWY0pzXmXuTih-4" edge="1">
          <mxGeometry relative="1" as="geometry">
            <mxPoint x="960" y="150" as="sourcePoint" />
            <mxPoint x="780" y="150" as="targetPoint" />
          </mxGeometry>
        </mxCell>
        <mxCell id="I_wAnCqHGf3nJ5Xuihgx-1" value="&lt;font style=&quot;font-size: 8px;&quot;&gt;[there is at least one&lt;br&gt;&amp;nbsp;order for this day of week]&lt;/font&gt;" style="text;html=1;align=center;verticalAlign=middle;resizable=0;points=[];autosize=1;strokeColor=none;fillColor=none;" vertex="1" parent="1">
          <mxGeometry x="661" y="134" width="110" height="40" as="geometry" />
        </mxCell>
      </root>
    </mxGraphModel>
  </diagram>
</mxfile>
